<svg width="1024" height="768" viewBox="0 0 1024 768" fill="none" xmlns="http://www.w3.org/2000/svg">
<g clip-path="url(#clip0_1_2)">
<rect width="1024" height="768" fill="#07072D"/>
<g filter="url(#filter0_b_1_2)">
<path d="M-234.949 295V298H-232.791L-232.105 295.954L-234.949 295ZM-291.199 295L-294.029 294.004L-295.435 298H-291.199V295ZM-188.784 4.0909V1.0909H-190.908L-191.614 3.09468L-188.784 4.0909ZM-123.727 4.0909L-120.898 3.09345L-121.604 1.0909H-123.727V4.0909ZM-21.1705 295V298H-16.9319L-18.3411 294.003L-21.1705 295ZM-77.4205 295L-80.2642 295.955L-79.5773 298H-77.4205V295ZM-155.119 63.75L-152.276 62.7945L-152.962 60.75H-155.119V63.75ZM-157.392 63.75V60.75H-159.55L-160.236 62.7961L-157.392 63.75ZM-233.102 180.938V177.938H-236.102V180.938H-233.102ZM-79.6932 180.938H-76.6932V177.938H-79.6932V180.938ZM-79.6932 223.267V226.267H-76.6932V223.267H-79.6932ZM-233.102 223.267H-236.102V226.267H-233.102V223.267ZM-234.949 292H-291.199V298H-234.949V292ZM-288.369 295.996L-185.954 5.08712L-191.614 3.09468L-294.029 294.004L-288.369 295.996ZM-188.784 7.0909H-123.727V1.0909H-188.784V7.0909ZM-126.557 5.08835L-23.9998 295.997L-18.3411 294.003L-120.898 3.09345L-126.557 5.08835ZM-21.1705 292H-77.4205V298H-21.1705V292ZM-74.5767 294.045L-152.276 62.7945L-157.963 64.7055L-80.2642 295.955L-74.5767 294.045ZM-155.119 60.75H-157.392V66.75H-155.119V60.75ZM-160.236 62.7961L-237.793 294.046L-232.105 295.954L-154.548 64.7039L-160.236 62.7961ZM-233.102 183.938H-79.6932V177.938H-233.102V183.938ZM-82.6932 180.938V223.267H-76.6932V180.938H-82.6932ZM-79.6932 220.267H-233.102V226.267H-79.6932V220.267ZM-230.102 223.267V180.938H-236.102V223.267H-230.102ZM-32.4276 4.0909V1.0909H-37.6366L-35.0224 5.59648L-32.4276 4.0909ZM27.0895 4.0909L29.7148 2.63914L28.8587 1.0909H27.0895V4.0909ZM98.2543 132.784L95.6289 134.236L96.4851 135.784H98.2543V132.784ZM101.095 132.784V135.784H102.864L103.721 134.236L101.095 132.784ZM172.26 4.0909V1.0909H170.491L169.635 2.63914L172.26 4.0909ZM231.777 4.0909L234.372 5.59648L236.986 1.0909H231.777V4.0909ZM125.953 186.477L123.358 184.972L122.953 185.67V186.477H125.953ZM125.953 295V298H128.953V295H125.953ZM73.3963 295H70.3963V298H73.3963V295ZM73.3963 186.477H76.3963V185.67L75.9912 184.972L73.3963 186.477ZM-32.4276 7.0909H27.0895V1.0909H-32.4276V7.0909ZM24.4642 5.54266L95.6289 134.236L100.88 131.332L29.7148 2.63914L24.4642 5.54266ZM98.2543 135.784H101.095V129.784H98.2543V135.784ZM103.721 134.236L174.885 5.54266L169.635 2.63914L98.4698 131.332L103.721 134.236ZM172.26 7.0909H231.777V1.0909H172.26V7.0909ZM229.182 2.58532L123.358 184.972L128.548 187.983L234.372 5.59648L229.182 2.58532ZM122.953 186.477V295H128.953V186.477H122.953ZM125.953 292H73.3963V298H125.953V292ZM76.3963 295V186.477H70.3963V295H76.3963ZM75.9912 184.972L-29.8327 2.58532L-35.0224 5.59648L70.8015 187.983L75.9912 184.972ZM495.023 230.085L492.367 228.69L492.365 228.694L495.023 230.085ZM447.295 281.222L445.777 278.634L445.772 278.637L447.295 281.222ZM310.506 281.222L308.973 283.8L308.98 283.805L308.987 283.809L310.506 281.222ZM262.778 229.943L260.118 231.33L260.122 231.336L260.125 231.343L262.778 229.943ZM262.778 69.1477L260.123 67.7523L260.12 67.7565L262.778 69.1477ZM310.506 17.8693L308.987 15.2819L308.982 15.2851L310.506 17.8693ZM447.295 17.8693L445.772 20.4535L445.777 20.4567L447.295 17.8693ZM495.023 69.1477L492.362 70.5343L492.366 70.541L492.369 70.5478L495.023 69.1477ZM449.284 93.7216L446.545 94.9463L446.55 94.9566L446.555 94.9668L449.284 93.7216ZM420.875 59.2045L419.243 61.7217L419.25 61.7262L419.257 61.7306L420.875 59.2045ZM337.068 59.2045L338.686 61.7306L338.693 61.7262L338.7 61.7217L337.068 59.2045ZM308.517 93.7216L305.785 92.4827L305.781 92.4905L308.517 93.7216ZM308.517 205.511L305.778 206.736L305.783 206.746L305.788 206.757L308.517 205.511ZM337.068 240.028L335.436 242.546L335.443 242.55L335.45 242.555L337.068 240.028ZM420.875 240.028L422.493 242.555L422.5 242.55L422.507 242.546L420.875 240.028ZM449.284 205.511L446.552 204.273L446.548 204.28L449.284 205.511ZM509.636 149.545C509.636 180.519 503.835 206.863 492.367 228.69L497.678 231.481C509.695 208.61 515.636 181.261 515.636 149.545H509.636ZM492.365 228.694C480.957 250.489 465.427 267.102 445.777 278.634L448.814 283.809C469.505 271.666 485.793 254.189 497.681 231.476L492.365 228.694ZM445.772 278.637C426.2 290.177 403.961 295.977 378.972 295.977V301.977C404.93 301.977 428.239 295.94 448.819 283.806L445.772 278.637ZM378.972 295.977C353.983 295.977 331.694 290.177 312.024 278.634L308.987 283.809C329.659 295.94 353.013 301.977 378.972 301.977V295.977ZM312.038 278.643C292.474 267.015 276.937 250.348 265.432 228.543L260.125 231.343C272.105 254.046 288.385 271.565 308.973 283.8L312.038 278.643ZM265.439 228.557C254.061 206.727 248.307 180.427 248.307 149.545H242.307C242.307 181.164 248.2 208.462 260.118 231.33L265.439 228.557ZM248.307 149.545C248.307 118.567 254.062 92.2699 265.436 70.5389L260.12 67.7565C248.199 90.5331 242.307 117.834 242.307 149.545H248.307ZM265.434 70.5431C276.94 48.6458 292.474 31.9838 312.029 20.4535L308.982 15.2851C288.386 27.4291 272.102 44.9527 260.123 67.7523L265.434 70.5431ZM312.024 20.4567C331.694 8.91356 353.983 3.11363 378.972 3.11363V-2.88637C353.013 -2.88637 329.659 3.15081 308.987 15.2819L312.024 20.4567ZM378.972 3.11363C403.961 3.11363 426.2 8.91359 445.772 20.4535L448.819 15.2851C428.239 3.15078 404.93 -2.88637 378.972 -2.88637V3.11363ZM445.777 20.4567C465.424 31.9865 480.954 48.645 492.362 70.5343L497.683 67.7612C485.796 44.9535 469.508 27.4264 448.814 15.2819L445.777 20.4567ZM492.369 70.5478C503.835 92.2767 509.636 118.571 509.636 149.545H515.636C515.636 117.831 509.695 90.5263 497.676 67.7477L492.369 70.5478ZM462.653 149.545C462.653 127.184 459.153 108.124 452.013 92.4763L446.555 94.9668C453.241 109.622 456.653 127.778 456.653 149.545H462.653ZM452.023 92.4968C445.005 76.8045 435.182 64.807 422.493 56.6785L419.257 61.7306C430.811 69.1324 439.927 80.1463 446.545 94.9463L452.023 92.4968ZM422.507 56.6874C409.854 48.4827 395.308 44.4148 378.972 44.4148V50.4148C394.264 50.4148 407.653 54.2067 419.243 61.7217L422.507 56.6874ZM378.972 44.4148C362.635 44.4148 348.089 48.4827 335.436 56.6874L338.7 61.7217C350.29 54.2067 363.679 50.4148 378.972 50.4148V44.4148ZM335.45 56.6785C322.766 64.8044 312.897 76.7967 305.785 92.4827L311.249 94.9604C317.963 80.154 327.128 69.135 338.686 61.7306L335.45 56.6785ZM305.781 92.4905C298.742 108.134 295.29 127.189 295.29 149.545H301.29C301.29 127.773 304.656 109.612 311.253 94.9527L305.781 92.4905ZM295.29 149.545C295.29 171.903 298.742 191.002 305.778 206.736L311.256 204.287C304.656 189.528 301.29 171.317 301.29 149.545H295.29ZM305.788 206.757C312.901 222.347 322.766 234.33 335.436 242.546L338.7 237.511C327.128 230.008 317.959 218.979 311.246 204.266L305.788 206.757ZM335.45 242.555C348.101 250.659 362.642 254.676 378.972 254.676V248.676C363.672 248.676 350.278 244.928 338.686 237.502L335.45 242.555ZM378.972 254.676C395.301 254.676 409.842 250.659 422.493 242.555L419.257 237.502C407.666 244.928 394.271 248.676 378.972 248.676V254.676ZM422.507 242.546C435.182 234.327 445.001 222.339 452.02 206.742L446.548 204.28C439.93 218.987 430.811 230.01 419.243 237.511L422.507 242.546ZM452.016 206.75C459.152 191.012 462.653 171.908 462.653 149.545H456.653C456.653 171.312 453.242 189.518 446.552 204.273L452.016 206.75Z" fill="#E8BF02" fill-opacity="0.3"/>
</g>
<g filter="url(#filter1_b_1_2)">
<path d="M-234.949 603V606H-232.791L-232.105 603.954L-234.949 603ZM-291.199 603L-294.029 602.004L-295.435 606H-291.199V603ZM-188.784 312.091V309.091H-190.908L-191.614 311.095L-188.784 312.091ZM-123.727 312.091L-120.898 311.093L-121.604 309.091H-123.727V312.091ZM-21.1705 603V606H-16.9319L-18.3411 602.003L-21.1705 603ZM-77.4205 603L-80.2642 603.955L-79.5773 606H-77.4205V603ZM-155.119 371.75L-152.276 370.795L-152.962 368.75H-155.119V371.75ZM-157.392 371.75V368.75H-159.55L-160.236 370.796L-157.392 371.75ZM-233.102 488.938V485.938H-236.102V488.938H-233.102ZM-79.6932 488.938H-76.6932V485.938H-79.6932V488.938ZM-79.6932 531.267V534.267H-76.6932V531.267H-79.6932ZM-233.102 531.267H-236.102V534.267H-233.102V531.267ZM-234.949 600H-291.199V606H-234.949V600ZM-288.369 603.996L-185.954 313.087L-191.614 311.095L-294.029 602.004L-288.369 603.996ZM-188.784 315.091H-123.727V309.091H-188.784V315.091ZM-126.557 313.088L-23.9998 603.997L-18.3411 602.003L-120.898 311.093L-126.557 313.088ZM-21.1705 600H-77.4205V606H-21.1705V600ZM-74.5767 602.045L-152.276 370.795L-157.963 372.705L-80.2642 603.955L-74.5767 602.045ZM-155.119 368.75H-157.392V374.75H-155.119V368.75ZM-160.236 370.796L-237.793 602.046L-232.105 603.954L-154.548 372.704L-160.236 370.796ZM-233.102 491.938H-79.6932V485.938H-233.102V491.938ZM-82.6932 488.938V531.267H-76.6932V488.938H-82.6932ZM-79.6932 528.267H-233.102V534.267H-79.6932V528.267ZM-230.102 531.267V488.938H-236.102V531.267H-230.102ZM-32.4276 312.091V309.091H-37.6366L-35.0224 313.596L-32.4276 312.091ZM27.0895 312.091L29.7148 310.639L28.8587 309.091H27.0895V312.091ZM98.2543 440.784L95.6289 442.236L96.4851 443.784H98.2543V440.784ZM101.095 440.784V443.784H102.864L103.721 442.236L101.095 440.784ZM172.26 312.091V309.091H170.491L169.635 310.639L172.26 312.091ZM231.777 312.091L234.372 313.596L236.986 309.091H231.777V312.091ZM125.953 494.477L123.358 492.972L122.953 493.67V494.477H125.953ZM125.953 603V606H128.953V603H125.953ZM73.3963 603H70.3963V606H73.3963V603ZM73.3963 494.477H76.3963V493.67L75.9912 492.972L73.3963 494.477ZM-32.4276 315.091H27.0895V309.091H-32.4276V315.091ZM24.4642 313.543L95.6289 442.236L100.88 439.332L29.7148 310.639L24.4642 313.543ZM98.2543 443.784H101.095V437.784H98.2543V443.784ZM103.721 442.236L174.885 313.543L169.635 310.639L98.4698 439.332L103.721 442.236ZM172.26 315.091H231.777V309.091H172.26V315.091ZM229.182 310.585L123.358 492.972L128.548 495.983L234.372 313.596L229.182 310.585ZM122.953 494.477V603H128.953V494.477H122.953ZM125.953 600H73.3963V606H125.953V600ZM76.3963 603V494.477H70.3963V603H76.3963ZM75.9912 492.972L-29.8327 310.585L-35.0224 313.596L70.8015 495.983L75.9912 492.972ZM495.023 538.085L492.367 536.69L492.365 536.694L495.023 538.085ZM447.295 589.222L445.777 586.634L445.772 586.637L447.295 589.222ZM310.506 589.222L308.973 591.8L308.98 591.805L308.987 591.809L310.506 589.222ZM262.778 537.943L260.118 539.33L260.122 539.336L260.125 539.343L262.778 537.943ZM262.778 377.148L260.123 375.752L260.12 375.757L262.778 377.148ZM310.506 325.869L308.987 323.282L308.982 323.285L310.506 325.869ZM447.295 325.869L445.772 328.454L445.777 328.457L447.295 325.869ZM495.023 377.148L492.362 378.534L492.366 378.541L492.369 378.548L495.023 377.148ZM449.284 401.722L446.545 402.946L446.55 402.957L446.555 402.967L449.284 401.722ZM420.875 367.205L419.243 369.722L419.25 369.726L419.257 369.731L420.875 367.205ZM337.068 367.205L338.686 369.731L338.693 369.726L338.7 369.722L337.068 367.205ZM308.517 401.722L305.785 400.483L305.781 400.49L308.517 401.722ZM308.517 513.511L305.778 514.736L305.783 514.746L305.788 514.757L308.517 513.511ZM337.068 548.028L335.436 550.546L335.443 550.55L335.45 550.555L337.068 548.028ZM420.875 548.028L422.493 550.555L422.5 550.55L422.507 550.546L420.875 548.028ZM449.284 513.511L446.552 512.273L446.548 512.28L449.284 513.511ZM509.636 457.545C509.636 488.519 503.835 514.863 492.367 536.69L497.678 539.481C509.695 516.61 515.636 489.261 515.636 457.545H509.636ZM492.365 536.694C480.957 558.489 465.427 575.102 445.777 586.634L448.814 591.809C469.505 579.666 485.793 562.189 497.681 539.476L492.365 536.694ZM445.772 586.637C426.2 598.177 403.961 603.977 378.972 603.977V609.977C404.93 609.977 428.239 603.94 448.819 591.806L445.772 586.637ZM378.972 603.977C353.983 603.977 331.694 598.177 312.024 586.634L308.987 591.809C329.659 603.94 353.013 609.977 378.972 609.977V603.977ZM312.038 586.643C292.474 575.015 276.937 558.348 265.432 536.543L260.125 539.343C272.105 562.046 288.385 579.565 308.973 591.8L312.038 586.643ZM265.439 536.557C254.061 514.727 248.307 488.427 248.307 457.545H242.307C242.307 489.164 248.2 516.462 260.118 539.33L265.439 536.557ZM248.307 457.545C248.307 426.567 254.062 400.27 265.436 378.539L260.12 375.757C248.199 398.533 242.307 425.834 242.307 457.545H248.307ZM265.434 378.543C276.94 356.646 292.474 339.984 312.029 328.454L308.982 323.285C288.386 335.429 272.102 352.953 260.123 375.752L265.434 378.543ZM312.024 328.457C331.694 316.914 353.983 311.114 378.972 311.114V305.114C353.013 305.114 329.659 311.151 308.987 323.282L312.024 328.457ZM378.972 311.114C403.961 311.114 426.2 316.914 445.772 328.454L448.819 323.285C428.239 311.151 404.93 305.114 378.972 305.114V311.114ZM445.777 328.457C465.424 339.986 480.954 356.645 492.362 378.534L497.683 375.761C485.796 352.953 469.508 335.426 448.814 323.282L445.777 328.457ZM492.369 378.548C503.835 400.277 509.636 426.571 509.636 457.545H515.636C515.636 425.831 509.695 398.526 497.676 375.748L492.369 378.548ZM462.653 457.545C462.653 435.184 459.153 416.124 452.013 400.476L446.555 402.967C453.241 417.622 456.653 435.778 456.653 457.545H462.653ZM452.023 400.497C445.005 384.804 435.182 372.807 422.493 364.678L419.257 369.731C430.811 377.132 439.927 388.146 446.545 402.946L452.023 400.497ZM422.507 364.687C409.854 356.483 395.308 352.415 378.972 352.415V358.415C394.264 358.415 407.653 362.207 419.243 369.722L422.507 364.687ZM378.972 352.415C362.635 352.415 348.089 356.483 335.436 364.687L338.7 369.722C350.29 362.207 363.679 358.415 378.972 358.415V352.415ZM335.45 364.678C322.766 372.804 312.897 384.797 305.785 400.483L311.249 402.96C317.963 388.154 327.128 377.135 338.686 369.731L335.45 364.678ZM305.781 400.49C298.742 416.134 295.29 435.189 295.29 457.545H301.29C301.29 435.773 304.656 417.612 311.253 402.953L305.781 400.49ZM295.29 457.545C295.29 479.903 298.742 499.002 305.778 514.736L311.256 512.287C304.656 497.528 301.29 479.317 301.29 457.545H295.29ZM305.788 514.757C312.901 530.347 322.766 542.33 335.436 550.546L338.7 545.511C327.128 538.008 317.959 526.979 311.246 512.266L305.788 514.757ZM335.45 550.555C348.101 558.659 362.642 562.676 378.972 562.676V556.676C363.672 556.676 350.278 552.928 338.686 545.502L335.45 550.555ZM378.972 562.676C395.301 562.676 409.842 558.659 422.493 550.555L419.257 545.502C407.666 552.928 394.271 556.676 378.972 556.676V562.676ZM422.507 550.546C435.182 542.327 445.001 530.339 452.02 514.742L446.548 512.28C439.93 526.987 430.811 538.01 419.243 545.511L422.507 550.546ZM452.016 514.75C459.152 499.012 462.653 479.908 462.653 457.545H456.653C456.653 479.312 453.242 497.518 446.552 512.273L452.016 514.75Z" fill="#E8BF02" fill-opacity="0.3"/>
</g>
<g filter="url(#filter2_b_1_2)">
<path d="M-234.949 913V916H-232.791L-232.105 913.954L-234.949 913ZM-291.199 913L-294.029 912.004L-295.435 916H-291.199V913ZM-188.784 622.091V619.091H-190.908L-191.614 621.095L-188.784 622.091ZM-123.727 622.091L-120.898 621.093L-121.604 619.091H-123.727V622.091ZM-21.1705 913V916H-16.9319L-18.3411 912.003L-21.1705 913ZM-77.4205 913L-80.2642 913.955L-79.5773 916H-77.4205V913ZM-155.119 681.75L-152.276 680.795L-152.962 678.75H-155.119V681.75ZM-157.392 681.75V678.75H-159.55L-160.236 680.796L-157.392 681.75ZM-233.102 798.938V795.938H-236.102V798.938H-233.102ZM-79.6932 798.938H-76.6932V795.938H-79.6932V798.938ZM-79.6932 841.267V844.267H-76.6932V841.267H-79.6932ZM-233.102 841.267H-236.102V844.267H-233.102V841.267ZM-234.949 910H-291.199V916H-234.949V910ZM-288.369 913.996L-185.954 623.087L-191.614 621.095L-294.029 912.004L-288.369 913.996ZM-188.784 625.091H-123.727V619.091H-188.784V625.091ZM-126.557 623.088L-23.9998 913.997L-18.3411 912.003L-120.898 621.093L-126.557 623.088ZM-21.1705 910H-77.4205V916H-21.1705V910ZM-74.5767 912.045L-152.276 680.795L-157.963 682.705L-80.2642 913.955L-74.5767 912.045ZM-155.119 678.75H-157.392V684.75H-155.119V678.75ZM-160.236 680.796L-237.793 912.046L-232.105 913.954L-154.548 682.704L-160.236 680.796ZM-233.102 801.938H-79.6932V795.938H-233.102V801.938ZM-82.6932 798.938V841.267H-76.6932V798.938H-82.6932ZM-79.6932 838.267H-233.102V844.267H-79.6932V838.267ZM-230.102 841.267V798.938H-236.102V841.267H-230.102ZM-32.4276 622.091V619.091H-37.6366L-35.0224 623.596L-32.4276 622.091ZM27.0895 622.091L29.7148 620.639L28.8587 619.091H27.0895V622.091ZM98.2543 750.784L95.6289 752.236L96.4851 753.784H98.2543V750.784ZM101.095 750.784V753.784H102.864L103.721 752.236L101.095 750.784ZM172.26 622.091V619.091H170.491L169.635 620.639L172.26 622.091ZM231.777 622.091L234.372 623.596L236.986 619.091H231.777V622.091ZM125.953 804.477L123.358 802.972L122.953 803.67V804.477H125.953ZM125.953 913V916H128.953V913H125.953ZM73.3963 913H70.3963V916H73.3963V913ZM73.3963 804.477H76.3963V803.67L75.9912 802.972L73.3963 804.477ZM-32.4276 625.091H27.0895V619.091H-32.4276V625.091ZM24.4642 623.543L95.6289 752.236L100.88 749.332L29.7148 620.639L24.4642 623.543ZM98.2543 753.784H101.095V747.784H98.2543V753.784ZM103.721 752.236L174.885 623.543L169.635 620.639L98.4698 749.332L103.721 752.236ZM172.26 625.091H231.777V619.091H172.26V625.091ZM229.182 620.585L123.358 802.972L128.548 805.983L234.372 623.596L229.182 620.585ZM122.953 804.477V913H128.953V804.477H122.953ZM125.953 910H73.3963V916H125.953V910ZM76.3963 913V804.477H70.3963V913H76.3963ZM75.9912 802.972L-29.8327 620.585L-35.0224 623.596L70.8015 805.983L75.9912 802.972ZM495.023 848.085L492.367 846.69L492.365 846.694L495.023 848.085ZM447.295 899.222L445.777 896.634L445.772 896.637L447.295 899.222ZM310.506 899.222L308.973 901.8L308.98 901.805L308.987 901.809L310.506 899.222ZM262.778 847.943L260.118 849.33L260.122 849.336L260.125 849.343L262.778 847.943ZM262.778 687.148L260.123 685.752L260.12 685.757L262.778 687.148ZM310.506 635.869L308.987 633.282L308.982 633.285L310.506 635.869ZM447.295 635.869L445.772 638.454L445.777 638.457L447.295 635.869ZM495.023 687.148L492.362 688.534L492.366 688.541L492.369 688.548L495.023 687.148ZM449.284 711.722L446.545 712.946L446.55 712.957L446.555 712.967L449.284 711.722ZM420.875 677.205L419.243 679.722L419.25 679.726L419.257 679.731L420.875 677.205ZM337.068 677.205L338.686 679.731L338.693 679.726L338.7 679.722L337.068 677.205ZM308.517 711.722L305.785 710.483L305.781 710.49L308.517 711.722ZM308.517 823.511L305.778 824.736L305.783 824.746L305.788 824.757L308.517 823.511ZM337.068 858.028L335.436 860.546L335.443 860.55L335.45 860.555L337.068 858.028ZM420.875 858.028L422.493 860.555L422.5 860.55L422.507 860.546L420.875 858.028ZM449.284 823.511L446.552 822.273L446.548 822.28L449.284 823.511ZM509.636 767.545C509.636 798.519 503.835 824.863 492.367 846.69L497.678 849.481C509.695 826.61 515.636 799.261 515.636 767.545H509.636ZM492.365 846.694C480.957 868.489 465.427 885.102 445.777 896.634L448.814 901.809C469.505 889.666 485.793 872.189 497.681 849.476L492.365 846.694ZM445.772 896.637C426.2 908.177 403.961 913.977 378.972 913.977V919.977C404.93 919.977 428.239 913.94 448.819 901.806L445.772 896.637ZM378.972 913.977C353.983 913.977 331.694 908.177 312.024 896.634L308.987 901.809C329.659 913.94 353.013 919.977 378.972 919.977V913.977ZM312.038 896.643C292.474 885.015 276.937 868.348 265.432 846.543L260.125 849.343C272.105 872.046 288.385 889.565 308.973 901.8L312.038 896.643ZM265.439 846.557C254.061 824.727 248.307 798.427 248.307 767.545H242.307C242.307 799.164 248.2 826.462 260.118 849.33L265.439 846.557ZM248.307 767.545C248.307 736.567 254.062 710.27 265.436 688.539L260.12 685.757C248.199 708.533 242.307 735.834 242.307 767.545H248.307ZM265.434 688.543C276.94 666.646 292.474 649.984 312.029 638.454L308.982 633.285C288.386 645.429 272.102 662.953 260.123 685.752L265.434 688.543ZM312.024 638.457C331.694 626.914 353.983 621.114 378.972 621.114V615.114C353.013 615.114 329.659 621.151 308.987 633.282L312.024 638.457ZM378.972 621.114C403.961 621.114 426.2 626.914 445.772 638.454L448.819 633.285C428.239 621.151 404.93 615.114 378.972 615.114V621.114ZM445.777 638.457C465.424 649.986 480.954 666.645 492.362 688.534L497.683 685.761C485.796 662.953 469.508 645.426 448.814 633.282L445.777 638.457ZM492.369 688.548C503.835 710.277 509.636 736.571 509.636 767.545H515.636C515.636 735.831 509.695 708.526 497.676 685.748L492.369 688.548ZM462.653 767.545C462.653 745.184 459.153 726.124 452.013 710.476L446.555 712.967C453.241 727.622 456.653 745.778 456.653 767.545H462.653ZM452.023 710.497C445.005 694.804 435.182 682.807 422.493 674.678L419.257 679.731C430.811 687.132 439.927 698.146 446.545 712.946L452.023 710.497ZM422.507 674.687C409.854 666.483 395.308 662.415 378.972 662.415V668.415C394.264 668.415 407.653 672.207 419.243 679.722L422.507 674.687ZM378.972 662.415C362.635 662.415 348.089 666.483 335.436 674.687L338.7 679.722C350.29 672.207 363.679 668.415 378.972 668.415V662.415ZM335.45 674.678C322.766 682.804 312.897 694.797 305.785 710.483L311.249 712.96C317.963 698.154 327.128 687.135 338.686 679.731L335.45 674.678ZM305.781 710.49C298.742 726.134 295.29 745.189 295.29 767.545H301.29C301.29 745.773 304.656 727.612 311.253 712.953L305.781 710.49ZM295.29 767.545C295.29 789.903 298.742 809.002 305.778 824.736L311.256 822.287C304.656 807.528 301.29 789.317 301.29 767.545H295.29ZM305.788 824.757C312.901 840.347 322.766 852.33 335.436 860.546L338.7 855.511C327.128 848.008 317.959 836.979 311.246 822.266L305.788 824.757ZM335.45 860.555C348.101 868.659 362.642 872.676 378.972 872.676V866.676C363.672 866.676 350.278 862.928 338.686 855.502L335.45 860.555ZM378.972 872.676C395.301 872.676 409.842 868.659 422.493 860.555L419.257 855.502C407.666 862.928 394.271 866.676 378.972 866.676V872.676ZM422.507 860.546C435.182 852.327 445.001 840.339 452.02 824.742L446.548 822.28C439.93 836.987 430.811 848.01 419.243 855.511L422.507 860.546ZM452.016 824.75C459.152 809.012 462.653 789.908 462.653 767.545H456.653C456.653 789.312 453.242 807.518 446.552 822.273L452.016 824.75Z" fill="#E8BF02" fill-opacity="0.3"/>
</g>
<g filter="url(#filter3_b_1_2)">
<path d="M578.051 281V284H580.209L580.895 281.954L578.051 281ZM521.801 281L518.971 280.004L517.565 284H521.801V281ZM624.216 -9.9091V-12.9091H622.092L621.386 -10.9053L624.216 -9.9091ZM689.273 -9.9091L692.102 -10.9065L691.396 -12.9091H689.273V-9.9091ZM791.83 281V284H796.068L794.659 280.003L791.83 281ZM735.58 281L732.736 281.955L733.423 284H735.58V281ZM657.881 49.75L660.724 48.7945L660.038 46.75H657.881V49.75ZM655.608 49.75V46.75H653.45L652.764 48.7961L655.608 49.75ZM579.898 166.938V163.938H576.898V166.938H579.898ZM733.307 166.938H736.307V163.938H733.307V166.938ZM733.307 209.267V212.267H736.307V209.267H733.307ZM579.898 209.267H576.898V212.267H579.898V209.267ZM578.051 278H521.801V284H578.051V278ZM524.631 281.996L627.046 -8.91288L621.386 -10.9053L518.971 280.004L524.631 281.996ZM624.216 -6.9091H689.273V-12.9091H624.216V-6.9091ZM686.443 -8.91165L789 281.997L794.659 280.003L692.102 -10.9065L686.443 -8.91165ZM791.83 278H735.58V284H791.83V278ZM738.423 280.045L660.724 48.7945L655.037 50.7055L732.736 281.955L738.423 280.045ZM657.881 46.75H655.608V52.75H657.881V46.75ZM652.764 48.7961L575.207 280.046L580.895 281.954L658.452 50.7039L652.764 48.7961ZM579.898 169.938H733.307V163.938H579.898V169.938ZM730.307 166.938V209.267H736.307V166.938H730.307ZM733.307 206.267H579.898V212.267H733.307V206.267ZM582.898 209.267V166.938H576.898V209.267H582.898ZM780.572 -9.9091V-12.9091H775.363L777.978 -8.40352L780.572 -9.9091ZM840.089 -9.9091L842.715 -11.3609L841.859 -12.9091H840.089V-9.9091ZM911.254 118.784L908.629 120.236L909.485 121.784H911.254V118.784ZM914.095 118.784V121.784H915.864L916.721 120.236L914.095 118.784ZM985.26 -9.9091V-12.9091H983.491L982.635 -11.3609L985.26 -9.9091ZM1044.78 -9.9091L1047.37 -8.40352L1049.99 -12.9091H1044.78V-9.9091ZM938.953 172.477L936.358 170.972L935.953 171.67V172.477H938.953ZM938.953 281V284H941.953V281H938.953ZM886.396 281H883.396V284H886.396V281ZM886.396 172.477H889.396V171.67L888.991 170.972L886.396 172.477ZM780.572 -6.9091H840.089V-12.9091H780.572V-6.9091ZM837.464 -8.45734L908.629 120.236L913.88 117.332L842.715 -11.3609L837.464 -8.45734ZM911.254 121.784H914.095V115.784H911.254V121.784ZM916.721 120.236L987.885 -8.45734L982.635 -11.3609L911.47 117.332L916.721 120.236ZM985.26 -6.9091H1044.78V-12.9091H985.26V-6.9091ZM1042.18 -11.4147L936.358 170.972L941.548 173.983L1047.37 -8.40352L1042.18 -11.4147ZM935.953 172.477V281H941.953V172.477H935.953ZM938.953 278H886.396V284H938.953V278ZM889.396 281V172.477H883.396V281H889.396ZM888.991 170.972L783.167 -11.4147L777.978 -8.40352L883.801 173.983L888.991 170.972ZM1308.02 216.085L1305.37 214.69L1305.36 214.694L1308.02 216.085ZM1260.3 267.222L1258.78 264.634L1258.77 264.637L1260.3 267.222ZM1123.51 267.222L1121.97 269.8L1121.98 269.805L1121.99 269.809L1123.51 267.222ZM1075.78 215.943L1073.12 217.33L1073.12 217.336L1073.13 217.343L1075.78 215.943ZM1075.78 55.1477L1073.12 53.7523L1073.12 53.7565L1075.78 55.1477ZM1123.51 3.8693L1121.99 1.28193L1121.98 1.28507L1123.51 3.8693ZM1260.3 3.8693L1258.77 6.45354L1258.78 6.45666L1260.3 3.8693ZM1308.02 55.1477L1305.36 56.5343L1305.37 56.541L1305.37 56.5478L1308.02 55.1477ZM1262.28 79.7216L1259.55 80.9463L1259.55 80.9566L1259.55 80.9668L1262.28 79.7216ZM1233.88 45.2045L1232.24 47.7217L1232.25 47.7262L1232.26 47.7306L1233.88 45.2045ZM1150.07 45.2045L1151.69 47.7306L1151.69 47.7262L1151.7 47.7217L1150.07 45.2045ZM1121.52 79.7216L1118.78 78.4827L1118.78 78.4905L1121.52 79.7216ZM1121.52 191.511L1118.78 192.736L1118.78 192.746L1118.79 192.757L1121.52 191.511ZM1150.07 226.028L1148.44 228.546L1148.44 228.55L1148.45 228.555L1150.07 226.028ZM1233.88 226.028L1235.49 228.555L1235.5 228.55L1235.51 228.546L1233.88 226.028ZM1262.28 191.511L1259.55 190.273L1259.55 190.28L1262.28 191.511ZM1322.64 135.545C1322.64 166.519 1316.84 192.863 1305.37 214.69L1310.68 217.481C1322.7 194.61 1328.64 167.261 1328.64 135.545H1322.64ZM1305.36 214.694C1293.96 236.489 1278.43 253.102 1258.78 264.634L1261.81 269.809C1282.5 257.666 1298.79 240.189 1310.68 217.476L1305.36 214.694ZM1258.77 264.637C1239.2 276.177 1216.96 281.977 1191.97 281.977V287.977C1217.93 287.977 1241.24 281.94 1261.82 269.806L1258.77 264.637ZM1191.97 281.977C1166.98 281.977 1144.69 276.177 1125.02 264.634L1121.99 269.809C1142.66 281.94 1166.01 287.977 1191.97 287.977V281.977ZM1125.04 264.643C1105.47 253.015 1089.94 236.348 1078.43 214.543L1073.13 217.343C1085.1 240.046 1101.39 257.565 1121.97 269.8L1125.04 264.643ZM1078.44 214.557C1067.06 192.727 1061.31 166.427 1061.31 135.545H1055.31C1055.31 167.164 1061.2 194.462 1073.12 217.33L1078.44 214.557ZM1061.31 135.545C1061.31 104.567 1067.06 78.2699 1078.44 56.5389L1073.12 53.7565C1061.2 76.5331 1055.31 103.834 1055.31 135.545H1061.31ZM1078.43 56.5431C1089.94 34.6458 1105.47 17.9838 1125.03 6.45353L1121.98 1.28507C1101.39 13.4291 1085.1 30.9527 1073.12 53.7523L1078.43 56.5431ZM1125.02 6.45666C1144.69 -5.08644 1166.98 -10.8864 1191.97 -10.8864V-16.8864C1166.01 -16.8864 1142.66 -10.8492 1121.99 1.28194L1125.02 6.45666ZM1191.97 -10.8864C1216.96 -10.8864 1239.2 -5.08641 1258.77 6.45354L1261.82 1.28507C1241.24 -10.8492 1217.93 -16.8864 1191.97 -16.8864V-10.8864ZM1258.78 6.45666C1278.42 17.9865 1293.95 34.645 1305.36 56.5343L1310.68 53.7612C1298.8 30.9535 1282.51 13.4264 1261.81 1.28194L1258.78 6.45666ZM1305.37 56.5478C1316.83 78.2767 1322.64 104.571 1322.64 135.545H1328.64C1328.64 103.831 1322.7 76.5263 1310.68 53.7477L1305.37 56.5478ZM1275.65 135.545C1275.65 113.184 1272.15 94.1239 1265.01 78.4763L1259.55 80.9668C1266.24 95.6223 1269.65 113.778 1269.65 135.545H1275.65ZM1265.02 78.4968C1258.01 62.8045 1248.18 50.807 1235.49 42.6785L1232.26 47.7306C1243.81 55.1324 1252.93 66.1463 1259.55 80.9463L1265.02 78.4968ZM1235.51 42.6874C1222.85 34.4827 1208.31 30.4148 1191.97 30.4148V36.4148C1207.26 36.4148 1220.65 40.2067 1232.24 47.7217L1235.51 42.6874ZM1191.97 30.4148C1175.63 30.4148 1161.09 34.4827 1148.44 42.6874L1151.7 47.7217C1163.29 40.2067 1176.68 36.4148 1191.97 36.4148V30.4148ZM1148.45 42.6785C1135.77 50.8044 1125.9 62.7967 1118.78 78.4827L1124.25 80.9604C1130.96 66.154 1140.13 55.135 1151.69 47.7306L1148.45 42.6785ZM1118.78 78.4905C1111.74 94.1339 1108.29 113.189 1108.29 135.545H1114.29C1114.29 113.773 1117.66 95.6123 1124.25 80.9527L1118.78 78.4905ZM1108.29 135.545C1108.29 157.903 1111.74 177.002 1118.78 192.736L1124.26 190.287C1117.66 175.528 1114.29 157.317 1114.29 135.545H1108.29ZM1118.79 192.757C1125.9 208.347 1135.77 220.33 1148.44 228.546L1151.7 223.511C1140.13 216.008 1130.96 204.979 1124.25 190.266L1118.79 192.757ZM1148.45 228.555C1161.1 236.659 1175.64 240.676 1191.97 240.676V234.676C1176.67 234.676 1163.28 230.928 1151.69 223.502L1148.45 228.555ZM1191.97 240.676C1208.3 240.676 1222.84 236.659 1235.49 228.555L1232.26 223.502C1220.67 230.928 1207.27 234.676 1191.97 234.676V240.676ZM1235.51 228.546C1248.18 220.327 1258 208.339 1265.02 192.742L1259.55 190.28C1252.93 204.987 1243.81 216.01 1232.24 223.511L1235.51 228.546ZM1265.02 192.75C1272.15 177.012 1275.65 157.908 1275.65 135.545H1269.65C1269.65 157.312 1266.24 175.518 1259.55 190.273L1265.02 192.75Z" fill="#E8BF02" fill-opacity="0.3"/>
</g>
<g filter="url(#filter4_b_1_2)">
<path d="M578.051 589V592H580.209L580.895 589.954L578.051 589ZM521.801 589L518.971 588.004L517.565 592H521.801V589ZM624.216 298.091V295.091H622.092L621.386 297.095L624.216 298.091ZM689.273 298.091L692.102 297.093L691.396 295.091H689.273V298.091ZM791.83 589V592H796.068L794.659 588.003L791.83 589ZM735.58 589L732.736 589.955L733.423 592H735.58V589ZM657.881 357.75L660.724 356.795L660.038 354.75H657.881V357.75ZM655.608 357.75V354.75H653.45L652.764 356.796L655.608 357.75ZM579.898 474.938V471.938H576.898V474.938H579.898ZM733.307 474.938H736.307V471.938H733.307V474.938ZM733.307 517.267V520.267H736.307V517.267H733.307ZM579.898 517.267H576.898V520.267H579.898V517.267ZM578.051 586H521.801V592H578.051V586ZM524.631 589.996L627.046 299.087L621.386 297.095L518.971 588.004L524.631 589.996ZM624.216 301.091H689.273V295.091H624.216V301.091ZM686.443 299.088L789 589.997L794.659 588.003L692.102 297.093L686.443 299.088ZM791.83 586H735.58V592H791.83V586ZM738.423 588.045L660.724 356.795L655.037 358.705L732.736 589.955L738.423 588.045ZM657.881 354.75H655.608V360.75H657.881V354.75ZM652.764 356.796L575.207 588.046L580.895 589.954L658.452 358.704L652.764 356.796ZM579.898 477.938H733.307V471.938H579.898V477.938ZM730.307 474.938V517.267H736.307V474.938H730.307ZM733.307 514.267H579.898V520.267H733.307V514.267ZM582.898 517.267V474.938H576.898V517.267H582.898ZM780.572 298.091V295.091H775.363L777.978 299.596L780.572 298.091ZM840.089 298.091L842.715 296.639L841.859 295.091H840.089V298.091ZM911.254 426.784L908.629 428.236L909.485 429.784H911.254V426.784ZM914.095 426.784V429.784H915.864L916.721 428.236L914.095 426.784ZM985.26 298.091V295.091H983.491L982.635 296.639L985.26 298.091ZM1044.78 298.091L1047.37 299.596L1049.99 295.091H1044.78V298.091ZM938.953 480.477L936.358 478.972L935.953 479.67V480.477H938.953ZM938.953 589V592H941.953V589H938.953ZM886.396 589H883.396V592H886.396V589ZM886.396 480.477H889.396V479.67L888.991 478.972L886.396 480.477ZM780.572 301.091H840.089V295.091H780.572V301.091ZM837.464 299.543L908.629 428.236L913.88 425.332L842.715 296.639L837.464 299.543ZM911.254 429.784H914.095V423.784H911.254V429.784ZM916.721 428.236L987.885 299.543L982.635 296.639L911.47 425.332L916.721 428.236ZM985.26 301.091H1044.78V295.091H985.26V301.091ZM1042.18 296.585L936.358 478.972L941.548 481.983L1047.37 299.596L1042.18 296.585ZM935.953 480.477V589H941.953V480.477H935.953ZM938.953 586H886.396V592H938.953V586ZM889.396 589V480.477H883.396V589H889.396ZM888.991 478.972L783.167 296.585L777.978 299.596L883.801 481.983L888.991 478.972ZM1308.02 524.085L1305.37 522.69L1305.36 522.694L1308.02 524.085ZM1260.3 575.222L1258.78 572.634L1258.77 572.637L1260.3 575.222ZM1123.51 575.222L1121.97 577.8L1121.98 577.805L1121.99 577.809L1123.51 575.222ZM1075.78 523.943L1073.12 525.33L1073.12 525.336L1073.13 525.343L1075.78 523.943ZM1075.78 363.148L1073.12 361.752L1073.12 361.757L1075.78 363.148ZM1123.51 311.869L1121.99 309.282L1121.98 309.285L1123.51 311.869ZM1260.3 311.869L1258.77 314.454L1258.78 314.457L1260.3 311.869ZM1308.02 363.148L1305.36 364.534L1305.37 364.541L1305.37 364.548L1308.02 363.148ZM1262.28 387.722L1259.55 388.946L1259.55 388.957L1259.55 388.967L1262.28 387.722ZM1233.88 353.205L1232.24 355.722L1232.25 355.726L1232.26 355.731L1233.88 353.205ZM1150.07 353.205L1151.69 355.731L1151.69 355.726L1151.7 355.722L1150.07 353.205ZM1121.52 387.722L1118.78 386.483L1118.78 386.49L1121.52 387.722ZM1121.52 499.511L1118.78 500.736L1118.78 500.746L1118.79 500.757L1121.52 499.511ZM1150.07 534.028L1148.44 536.546L1148.44 536.55L1148.45 536.555L1150.07 534.028ZM1233.88 534.028L1235.49 536.555L1235.5 536.55L1235.51 536.546L1233.88 534.028ZM1262.28 499.511L1259.55 498.273L1259.55 498.28L1262.28 499.511ZM1322.64 443.545C1322.64 474.519 1316.84 500.863 1305.37 522.69L1310.68 525.481C1322.7 502.61 1328.64 475.261 1328.64 443.545H1322.64ZM1305.36 522.694C1293.96 544.489 1278.43 561.102 1258.78 572.634L1261.81 577.809C1282.5 565.666 1298.79 548.189 1310.68 525.476L1305.36 522.694ZM1258.77 572.637C1239.2 584.177 1216.96 589.977 1191.97 589.977V595.977C1217.93 595.977 1241.24 589.94 1261.82 577.806L1258.77 572.637ZM1191.97 589.977C1166.98 589.977 1144.69 584.177 1125.02 572.634L1121.99 577.809C1142.66 589.94 1166.01 595.977 1191.97 595.977V589.977ZM1125.04 572.643C1105.47 561.015 1089.94 544.348 1078.43 522.543L1073.13 525.343C1085.1 548.046 1101.39 565.565 1121.97 577.8L1125.04 572.643ZM1078.44 522.557C1067.06 500.727 1061.31 474.427 1061.31 443.545H1055.31C1055.31 475.164 1061.2 502.462 1073.12 525.33L1078.44 522.557ZM1061.31 443.545C1061.31 412.567 1067.06 386.27 1078.44 364.539L1073.12 361.757C1061.2 384.533 1055.31 411.834 1055.31 443.545H1061.31ZM1078.43 364.543C1089.94 342.646 1105.47 325.984 1125.03 314.454L1121.98 309.285C1101.39 321.429 1085.1 338.953 1073.12 361.752L1078.43 364.543ZM1125.02 314.457C1144.69 302.914 1166.98 297.114 1191.97 297.114V291.114C1166.01 291.114 1142.66 297.151 1121.99 309.282L1125.02 314.457ZM1191.97 297.114C1216.96 297.114 1239.2 302.914 1258.77 314.454L1261.82 309.285C1241.24 297.151 1217.93 291.114 1191.97 291.114V297.114ZM1258.78 314.457C1278.42 325.986 1293.95 342.645 1305.36 364.534L1310.68 361.761C1298.8 338.953 1282.51 321.426 1261.81 309.282L1258.78 314.457ZM1305.37 364.548C1316.83 386.277 1322.64 412.571 1322.64 443.545H1328.64C1328.64 411.831 1322.7 384.526 1310.68 361.748L1305.37 364.548ZM1275.65 443.545C1275.65 421.184 1272.15 402.124 1265.01 386.476L1259.55 388.967C1266.24 403.622 1269.65 421.778 1269.65 443.545H1275.65ZM1265.02 386.497C1258.01 370.804 1248.18 358.807 1235.49 350.678L1232.26 355.731C1243.81 363.132 1252.93 374.146 1259.55 388.946L1265.02 386.497ZM1235.51 350.687C1222.85 342.483 1208.31 338.415 1191.97 338.415V344.415C1207.26 344.415 1220.65 348.207 1232.24 355.722L1235.51 350.687ZM1191.97 338.415C1175.63 338.415 1161.09 342.483 1148.44 350.687L1151.7 355.722C1163.29 348.207 1176.68 344.415 1191.97 344.415V338.415ZM1148.45 350.678C1135.77 358.804 1125.9 370.797 1118.78 386.483L1124.25 388.96C1130.96 374.154 1140.13 363.135 1151.69 355.731L1148.45 350.678ZM1118.78 386.49C1111.74 402.134 1108.29 421.189 1108.29 443.545H1114.29C1114.29 421.773 1117.66 403.612 1124.25 388.953L1118.78 386.49ZM1108.29 443.545C1108.29 465.903 1111.74 485.002 1118.78 500.736L1124.26 498.287C1117.66 483.528 1114.29 465.317 1114.29 443.545H1108.29ZM1118.79 500.757C1125.9 516.347 1135.77 528.33 1148.44 536.546L1151.7 531.511C1140.13 524.008 1130.96 512.979 1124.25 498.266L1118.79 500.757ZM1148.45 536.555C1161.1 544.659 1175.64 548.676 1191.97 548.676V542.676C1176.67 542.676 1163.28 538.928 1151.69 531.502L1148.45 536.555ZM1191.97 548.676C1208.3 548.676 1222.84 544.659 1235.49 536.555L1232.26 531.502C1220.67 538.928 1207.27 542.676 1191.97 542.676V548.676ZM1235.51 536.546C1248.18 528.327 1258 516.339 1265.02 500.742L1259.55 498.28C1252.93 512.987 1243.81 524.01 1232.24 531.511L1235.51 536.546ZM1265.02 500.75C1272.15 485.012 1275.65 465.908 1275.65 443.545H1269.65C1269.65 465.312 1266.24 483.518 1259.55 498.273L1265.02 500.75Z" fill="#E8BF02" fill-opacity="0.3"/>
</g>
<g filter="url(#filter5_b_1_2)">
<path d="M578.051 899V902H580.209L580.895 899.954L578.051 899ZM521.801 899L518.971 898.004L517.565 902H521.801V899ZM624.216 608.091V605.091H622.092L621.386 607.095L624.216 608.091ZM689.273 608.091L692.102 607.093L691.396 605.091H689.273V608.091ZM791.83 899V902H796.068L794.659 898.003L791.83 899ZM735.58 899L732.736 899.955L733.423 902H735.58V899ZM657.881 667.75L660.724 666.795L660.038 664.75H657.881V667.75ZM655.608 667.75V664.75H653.45L652.764 666.796L655.608 667.75ZM579.898 784.938V781.938H576.898V784.938H579.898ZM733.307 784.938H736.307V781.938H733.307V784.938ZM733.307 827.267V830.267H736.307V827.267H733.307ZM579.898 827.267H576.898V830.267H579.898V827.267ZM578.051 896H521.801V902H578.051V896ZM524.631 899.996L627.046 609.087L621.386 607.095L518.971 898.004L524.631 899.996ZM624.216 611.091H689.273V605.091H624.216V611.091ZM686.443 609.088L789 899.997L794.659 898.003L692.102 607.093L686.443 609.088ZM791.83 896H735.58V902H791.83V896ZM738.423 898.045L660.724 666.795L655.037 668.705L732.736 899.955L738.423 898.045ZM657.881 664.75H655.608V670.75H657.881V664.75ZM652.764 666.796L575.207 898.046L580.895 899.954L658.452 668.704L652.764 666.796ZM579.898 787.938H733.307V781.938H579.898V787.938ZM730.307 784.938V827.267H736.307V784.938H730.307ZM733.307 824.267H579.898V830.267H733.307V824.267ZM582.898 827.267V784.938H576.898V827.267H582.898ZM780.572 608.091V605.091H775.363L777.978 609.596L780.572 608.091ZM840.089 608.091L842.715 606.639L841.859 605.091H840.089V608.091ZM911.254 736.784L908.629 738.236L909.485 739.784H911.254V736.784ZM914.095 736.784V739.784H915.864L916.721 738.236L914.095 736.784ZM985.26 608.091V605.091H983.491L982.635 606.639L985.26 608.091ZM1044.78 608.091L1047.37 609.596L1049.99 605.091H1044.78V608.091ZM938.953 790.477L936.358 788.972L935.953 789.67V790.477H938.953ZM938.953 899V902H941.953V899H938.953ZM886.396 899H883.396V902H886.396V899ZM886.396 790.477H889.396V789.67L888.991 788.972L886.396 790.477ZM780.572 611.091H840.089V605.091H780.572V611.091ZM837.464 609.543L908.629 738.236L913.88 735.332L842.715 606.639L837.464 609.543ZM911.254 739.784H914.095V733.784H911.254V739.784ZM916.721 738.236L987.885 609.543L982.635 606.639L911.47 735.332L916.721 738.236ZM985.26 611.091H1044.78V605.091H985.26V611.091ZM1042.18 606.585L936.358 788.972L941.548 791.983L1047.37 609.596L1042.18 606.585ZM935.953 790.477V899H941.953V790.477H935.953ZM938.953 896H886.396V902H938.953V896ZM889.396 899V790.477H883.396V899H889.396ZM888.991 788.972L783.167 606.585L777.978 609.596L883.801 791.983L888.991 788.972ZM1308.02 834.085L1305.37 832.69L1305.36 832.694L1308.02 834.085ZM1260.3 885.222L1258.78 882.634L1258.77 882.637L1260.3 885.222ZM1123.51 885.222L1121.97 887.8L1121.98 887.805L1121.99 887.809L1123.51 885.222ZM1075.78 833.943L1073.12 835.33L1073.12 835.336L1073.13 835.343L1075.78 833.943ZM1075.78 673.148L1073.12 671.752L1073.12 671.757L1075.78 673.148ZM1123.51 621.869L1121.99 619.282L1121.98 619.285L1123.51 621.869ZM1260.3 621.869L1258.77 624.454L1258.78 624.457L1260.3 621.869ZM1308.02 673.148L1305.36 674.534L1305.37 674.541L1305.37 674.548L1308.02 673.148ZM1262.28 697.722L1259.55 698.946L1259.55 698.957L1259.55 698.967L1262.28 697.722ZM1233.88 663.205L1232.24 665.722L1232.25 665.726L1232.26 665.731L1233.88 663.205ZM1150.07 663.205L1151.69 665.731L1151.69 665.726L1151.7 665.722L1150.07 663.205ZM1121.52 697.722L1118.78 696.483L1118.78 696.49L1121.52 697.722ZM1121.52 809.511L1118.78 810.736L1118.78 810.746L1118.79 810.757L1121.52 809.511ZM1150.07 844.028L1148.44 846.546L1148.44 846.55L1148.45 846.555L1150.07 844.028ZM1233.88 844.028L1235.49 846.555L1235.5 846.55L1235.51 846.546L1233.88 844.028ZM1262.28 809.511L1259.55 808.273L1259.55 808.28L1262.28 809.511ZM1322.64 753.545C1322.64 784.519 1316.84 810.863 1305.37 832.69L1310.68 835.481C1322.7 812.61 1328.64 785.261 1328.64 753.545H1322.64ZM1305.36 832.694C1293.96 854.489 1278.43 871.102 1258.78 882.634L1261.81 887.809C1282.5 875.666 1298.79 858.189 1310.68 835.476L1305.36 832.694ZM1258.77 882.637C1239.2 894.177 1216.96 899.977 1191.97 899.977V905.977C1217.93 905.977 1241.24 899.94 1261.82 887.806L1258.77 882.637ZM1191.97 899.977C1166.98 899.977 1144.69 894.177 1125.02 882.634L1121.99 887.809C1142.66 899.94 1166.01 905.977 1191.97 905.977V899.977ZM1125.04 882.643C1105.47 871.015 1089.94 854.348 1078.43 832.543L1073.13 835.343C1085.1 858.046 1101.39 875.565 1121.97 887.8L1125.04 882.643ZM1078.44 832.557C1067.06 810.727 1061.31 784.427 1061.31 753.545H1055.31C1055.31 785.164 1061.2 812.462 1073.12 835.33L1078.44 832.557ZM1061.31 753.545C1061.31 722.567 1067.06 696.27 1078.44 674.539L1073.12 671.757C1061.2 694.533 1055.31 721.834 1055.31 753.545H1061.31ZM1078.43 674.543C1089.94 652.646 1105.47 635.984 1125.03 624.454L1121.98 619.285C1101.39 631.429 1085.1 648.953 1073.12 671.752L1078.43 674.543ZM1125.02 624.457C1144.69 612.914 1166.98 607.114 1191.97 607.114V601.114C1166.01 601.114 1142.66 607.151 1121.99 619.282L1125.02 624.457ZM1191.97 607.114C1216.96 607.114 1239.2 612.914 1258.77 624.454L1261.82 619.285C1241.24 607.151 1217.93 601.114 1191.97 601.114V607.114ZM1258.78 624.457C1278.42 635.986 1293.95 652.645 1305.36 674.534L1310.68 671.761C1298.8 648.953 1282.51 631.426 1261.81 619.282L1258.78 624.457ZM1305.37 674.548C1316.83 696.277 1322.64 722.571 1322.64 753.545H1328.64C1328.64 721.831 1322.7 694.526 1310.68 671.748L1305.37 674.548ZM1275.65 753.545C1275.65 731.184 1272.15 712.124 1265.01 696.476L1259.55 698.967C1266.24 713.622 1269.65 731.778 1269.65 753.545H1275.65ZM1265.02 696.497C1258.01 680.804 1248.18 668.807 1235.49 660.678L1232.26 665.731C1243.81 673.132 1252.93 684.146 1259.55 698.946L1265.02 696.497ZM1235.51 660.687C1222.85 652.483 1208.31 648.415 1191.97 648.415V654.415C1207.26 654.415 1220.65 658.207 1232.24 665.722L1235.51 660.687ZM1191.97 648.415C1175.63 648.415 1161.09 652.483 1148.44 660.687L1151.7 665.722C1163.29 658.207 1176.68 654.415 1191.97 654.415V648.415ZM1148.45 660.678C1135.77 668.804 1125.9 680.797 1118.78 696.483L1124.25 698.96C1130.96 684.154 1140.13 673.135 1151.69 665.731L1148.45 660.678ZM1118.78 696.49C1111.74 712.134 1108.29 731.189 1108.29 753.545H1114.29C1114.29 731.773 1117.66 713.612 1124.25 698.953L1118.78 696.49ZM1108.29 753.545C1108.29 775.903 1111.74 795.002 1118.78 810.736L1124.26 808.287C1117.66 793.528 1114.29 775.317 1114.29 753.545H1108.29ZM1118.79 810.757C1125.9 826.347 1135.77 838.33 1148.44 846.546L1151.7 841.511C1140.13 834.008 1130.96 822.979 1124.25 808.266L1118.79 810.757ZM1148.45 846.555C1161.1 854.659 1175.64 858.676 1191.97 858.676V852.676C1176.67 852.676 1163.28 848.928 1151.69 841.502L1148.45 846.555ZM1191.97 858.676C1208.3 858.676 1222.84 854.659 1235.49 846.555L1232.26 841.502C1220.67 848.928 1207.27 852.676 1191.97 852.676V858.676ZM1235.51 846.546C1248.18 838.327 1258 826.339 1265.02 810.742L1259.55 808.28C1252.93 822.987 1243.81 834.01 1232.24 841.511L1235.51 846.546ZM1265.02 810.75C1272.15 795.012 1275.65 775.908 1275.65 753.545H1269.65C1269.65 775.312 1266.24 793.518 1259.55 808.273L1265.02 810.75Z" fill="#E8BF02" fill-opacity="0.3"/>
</g>
<path d="M334.2 527C335 529.4 338.2 530.6 343.8 530.6V538.2H262.6V530.6C266.067 530.6 268.467 529.8 269.8 528.2C271.133 526.6 271.4 525 270.6 523.4L248.6 467H118.2L96.2 523.4L95.8 524.6C95.8 526.2 96.4667 527.667 97.8 529C99.4 530.067 101.4 530.6 103.8 530.6V538.2H25V530.6C30.3333 530.6 33.5333 529.4 34.6 527L145.8 256.6C146.6 255 147 253.533 147 252.2C147 249.8 145.933 248.2 143.8 247.4C141.667 246.333 139.4 245.8 137 245.8V238.2H230.2V245.8C227.8 245.8 225.533 246.333 223.4 247.4C221.267 248.2 220.2 249.8 220.2 252.2C220.2 253.533 220.6 255 221.4 256.6L334.2 527ZM183.4 300.6L136.2 421H230.6L183.4 300.6Z" fill="#E4E1E4"/>
<path d="M650.353 245.8H647.953C642.886 245.8 639.82 246.6 638.753 248.2L531.153 402.6V526.2C531.153 527.533 532.22 528.6 534.353 529.4C536.753 530.2 539.02 530.6 541.153 530.6V538.2H462.753V530.6C464.886 530.6 467.02 530.2 469.153 529.4C471.553 528.6 472.753 527.533 472.753 526.2V405L363.553 248.2C362.753 247.133 361.02 246.467 358.353 246.2C355.953 245.933 353.82 245.8 351.953 245.8V238.2H434.353V245.8C431.153 245.8 429.553 246.467 429.553 247.8C429.553 248.867 429.953 250.067 430.753 251.4L500.353 349.4L569.153 251.4L569.953 249.8C569.953 248.467 569.153 247.533 567.553 247C566.22 246.2 564.22 245.8 561.553 245.8V238.2H650.353V245.8Z" fill="#E4E1E4"/>
<path d="M826.203 544.6C795.27 544.6 767.536 537.533 743.003 523.4C718.736 509 699.803 490.067 686.203 466.6C672.87 442.867 666.203 417.8 666.203 391.4C666.203 364.733 672.603 339.133 685.403 314.6C698.203 289.8 716.736 269.667 741.003 254.2C765.27 238.733 793.67 231 826.203 231C857.936 231 885.803 238.333 909.803 253C933.803 267.667 952.203 287.267 965.003 311.8C977.803 336.067 984.203 362.6 984.203 391.4C984.203 417 977.803 441.667 965.003 465.4C952.47 488.867 934.203 507.933 910.203 522.6C886.203 537.267 858.203 544.6 826.203 544.6ZM826.603 491.8C846.603 491.8 864.47 487.667 880.203 479.4C896.203 470.867 908.603 459 917.403 443.8C926.47 428.333 931.003 410.867 931.003 391.4C931.003 370.867 926.736 352.467 918.203 336.2C909.67 319.933 897.403 307.133 881.403 297.8C865.403 288.2 846.47 283.4 824.603 283.4C804.603 283.4 786.736 288.2 771.003 297.8C755.536 307.133 743.403 320.067 734.603 336.6C725.803 353.133 721.403 371.4 721.403 391.4C721.403 412.2 726.47 430.2 736.603 445.4C747.003 460.6 760.203 472.2 776.203 480.2C792.47 487.933 809.27 491.8 826.603 491.8Z" fill="#E4E1E4"/>
<path d="M341.2 523C342 525.4 345.2 526.6 350.8 526.6V534.2H269.6V526.6C273.067 526.6 275.467 525.8 276.8 524.2C278.133 522.6 278.4 521 277.6 519.4L255.6 463H125.2L103.2 519.4L102.8 520.6C102.8 522.2 103.467 523.667 104.8 525C106.4 526.067 108.4 526.6 110.8 526.6V534.2H32V526.6C37.3333 526.6 40.5333 525.4 41.6 523L152.8 252.6C153.6 251 154 249.533 154 248.2C154 245.8 152.933 244.2 150.8 243.4C148.667 242.333 146.4 241.8 144 241.8V234.2H237.2V241.8C234.8 241.8 232.533 242.333 230.4 243.4C228.267 244.2 227.2 245.8 227.2 248.2C227.2 249.533 227.6 251 228.4 252.6L341.2 523ZM190.4 296.6L143.2 417H237.6L190.4 296.6Z" fill="#F32C00"/>
<path d="M657.353 241.8H654.953C649.886 241.8 646.82 242.6 645.753 244.2L538.153 398.6V522.2C538.153 523.533 539.22 524.6 541.353 525.4C543.753 526.2 546.02 526.6 548.153 526.6V534.2H469.753V526.6C471.886 526.6 474.02 526.2 476.153 525.4C478.553 524.6 479.753 523.533 479.753 522.2V401L370.553 244.2C369.753 243.133 368.02 242.467 365.353 242.2C362.953 241.933 360.82 241.8 358.953 241.8V234.2H441.353V241.8C438.153 241.8 436.553 242.467 436.553 243.8C436.553 244.867 436.953 246.067 437.753 247.4L507.353 345.4L576.153 247.4L576.953 245.8C576.953 244.467 576.153 243.533 574.553 243C573.22 242.2 571.22 241.8 568.553 241.8V234.2H657.353V241.8Z" fill="#F32C00"/>
<path d="M833.203 540.6C802.27 540.6 774.536 533.533 750.003 519.4C725.736 505 706.803 486.067 693.203 462.6C679.87 438.867 673.203 413.8 673.203 387.4C673.203 360.733 679.603 335.133 692.403 310.6C705.203 285.8 723.736 265.667 748.003 250.2C772.27 234.733 800.67 227 833.203 227C864.936 227 892.803 234.333 916.803 249C940.803 263.667 959.203 283.267 972.003 307.8C984.803 332.067 991.203 358.6 991.203 387.4C991.203 413 984.803 437.667 972.003 461.4C959.47 484.867 941.203 503.933 917.203 518.6C893.203 533.267 865.203 540.6 833.203 540.6ZM833.603 487.8C853.603 487.8 871.47 483.667 887.203 475.4C903.203 466.867 915.603 455 924.403 439.8C933.47 424.333 938.003 406.867 938.003 387.4C938.003 366.867 933.736 348.467 925.203 332.2C916.67 315.933 904.403 303.133 888.403 293.8C872.403 284.2 853.47 279.4 831.603 279.4C811.603 279.4 793.736 284.2 778.003 293.8C762.536 303.133 750.403 316.067 741.603 332.6C732.803 349.133 728.403 367.4 728.403 387.4C728.403 408.2 733.47 426.2 743.603 441.4C754.003 456.6 767.203 468.2 783.203 476.2C799.47 483.933 816.27 487.8 833.603 487.8Z" fill="#F32C00"/>
</g>
<defs>
<filter id="filter0_b_1_2" x="-295.199" y="-3.88638" width="811.835" height="306.864" filterUnits="userSpaceOnUse" color-interpolation-filters="sRGB">
<feFlood flood-opacity="0" result="BackgroundImageFix"/>
<feGaussianBlur in="BackgroundImageFix" stdDeviation="2"/>
<feComposite in2="SourceAlpha" operator="in" result="effect1_backgroundBlur_1_2"/>
<feBlend mode="normal" in="SourceGraphic" in2="effect1_backgroundBlur_1_2" result="shape"/>
</filter>
<filter id="filter1_b_1_2" x="-295.199" y="304.114" width="811.835" height="306.864" filterUnits="userSpaceOnUse" color-interpolation-filters="sRGB">
<feFlood flood-opacity="0" result="BackgroundImageFix"/>
<feGaussianBlur in="BackgroundImageFix" stdDeviation="2"/>
<feComposite in2="SourceAlpha" operator="in" result="effect1_backgroundBlur_1_2"/>
<feBlend mode="normal" in="SourceGraphic" in2="effect1_backgroundBlur_1_2" result="shape"/>
</filter>
<filter id="filter2_b_1_2" x="-295.199" y="614.114" width="811.835" height="306.864" filterUnits="userSpaceOnUse" color-interpolation-filters="sRGB">
<feFlood flood-opacity="0" result="BackgroundImageFix"/>
<feGaussianBlur in="BackgroundImageFix" stdDeviation="2"/>
<feComposite in2="SourceAlpha" operator="in" result="effect1_backgroundBlur_1_2"/>
<feBlend mode="normal" in="SourceGraphic" in2="effect1_backgroundBlur_1_2" result="shape"/>
</filter>
<filter id="filter3_b_1_2" x="517.801" y="-17.8864" width="811.835" height="306.864" filterUnits="userSpaceOnUse" color-interpolation-filters="sRGB">
<feFlood flood-opacity="0" result="BackgroundImageFix"/>
<feGaussianBlur in="BackgroundImageFix" stdDeviation="2"/>
<feComposite in2="SourceAlpha" operator="in" result="effect1_backgroundBlur_1_2"/>
<feBlend mode="normal" in="SourceGraphic" in2="effect1_backgroundBlur_1_2" result="shape"/>
</filter>
<filter id="filter4_b_1_2" x="517.801" y="290.114" width="811.835" height="306.864" filterUnits="userSpaceOnUse" color-interpolation-filters="sRGB">
<feFlood flood-opacity="0" result="BackgroundImageFix"/>
<feGaussianBlur in="BackgroundImageFix" stdDeviation="2"/>
<feComposite in2="SourceAlpha" operator="in" result="effect1_backgroundBlur_1_2"/>
<feBlend mode="normal" in="SourceGraphic" in2="effect1_backgroundBlur_1_2" result="shape"/>
</filter>
<filter id="filter5_b_1_2" x="517.801" y="600.114" width="811.835" height="306.864" filterUnits="userSpaceOnUse" color-interpolation-filters="sRGB">
<feFlood flood-opacity="0" result="BackgroundImageFix"/>
<feGaussianBlur in="BackgroundImageFix" stdDeviation="2"/>
<feComposite in2="SourceAlpha" operator="in" result="effect1_backgroundBlur_1_2"/>
<feBlend mode="normal" in="SourceGraphic" in2="effect1_backgroundBlur_1_2" result="shape"/>
</filter>
<clipPath id="clip0_1_2">
<rect width="1024" height="768" fill="white"/>
</clipPath>
</defs>
</svg>
