<svg width="1512" height="982" viewBox="0 0 1512 982" fill="none" xmlns="http://www.w3.org/2000/svg">
<g clip-path="url(#clip0_61_56)">
<rect width="1512" height="982" fill="#F1F7EB"/>
<rect x="1627.65" y="203" width="179" height="1625.15" transform="rotate(45.1249 1627.65 203)" fill="#52FFCB" fill-opacity="0.35"/>
<rect x="805.423" y="-27.3124" width="63.6075" height="1841.3" transform="rotate(39.3072 805.423 -27.3124)" fill="#85FF00"/>
<rect x="1628.01" y="1139.18" width="149.543" height="1467.66" transform="rotate(147.527 1628.01 1139.18)" fill="#7F3549"/>
<rect x="1724.05" y="344.86" width="88.2018" height="1797.3" transform="rotate(99.7658 1724.05 344.86)" fill="#609625"/>
<path d="M45.2727 468H4.36364L50.4545 328.364H102.273L148.364 468H107.455L76.9091 366.818H75.8182L45.2727 468ZM37.6364 412.909H114.545V441.273H37.6364V412.909ZM215.54 468H161.812V328.364H214.994C229.358 328.364 241.767 331.159 252.222 336.75C262.722 342.295 270.813 350.295 276.494 360.75C282.222 371.159 285.085 383.636 285.085 398.182C285.085 412.727 282.244 425.227 276.562 435.682C270.881 446.091 262.835 454.091 252.426 459.682C242.017 465.227 229.722 468 215.54 468ZM199.722 435.818H214.176C221.085 435.818 226.972 434.705 231.835 432.477C236.744 430.25 240.472 426.409 243.017 420.955C245.608 415.5 246.903 407.909 246.903 398.182C246.903 388.455 245.585 380.864 242.949 375.409C240.358 369.955 236.54 366.114 231.494 363.886C226.494 361.659 220.358 360.545 213.085 360.545H199.722V435.818ZM5.18182 590.909V560.364H126.545V590.909H84.5455V700H47.1818V590.909H5.18182ZM178.722 560.364V700H140.812V560.364H178.722ZM196.688 560.364H243.869L276.324 639.455H277.96L310.415 560.364H357.597V700H320.506V619.273H319.415L288.324 698.909H265.96L234.869 618.727H233.778V700H196.688V560.364ZM510.835 630.182C510.835 645.727 507.813 658.841 501.767 669.523C495.722 680.159 487.563 688.227 477.29 693.727C467.017 699.182 455.563 701.909 442.926 701.909C430.199 701.909 418.699 699.159 408.426 693.659C398.199 688.114 390.062 680.023 384.017 669.386C378.017 658.705 375.017 645.636 375.017 630.182C375.017 614.636 378.017 601.545 384.017 590.909C390.062 580.227 398.199 572.159 408.426 566.705C418.699 561.205 430.199 558.455 442.926 558.455C455.563 558.455 467.017 561.205 477.29 566.705C487.563 572.159 495.722 580.227 501.767 590.909C507.813 601.545 510.835 614.636 510.835 630.182ZM471.835 630.182C471.835 621.818 470.722 614.773 468.494 609.045C466.312 603.273 463.063 598.909 458.744 595.955C454.472 592.955 449.199 591.455 442.926 591.455C436.653 591.455 431.358 592.955 427.04 595.955C422.767 598.909 419.517 603.273 417.29 609.045C415.108 614.773 414.017 621.818 414.017 630.182C414.017 638.545 415.108 645.614 417.29 651.386C419.517 657.114 422.767 661.477 427.04 664.477C431.358 667.432 436.653 668.909 442.926 668.909C449.199 668.909 454.472 667.432 458.744 664.477C463.063 661.477 466.312 657.114 468.494 651.386C470.722 645.614 471.835 638.545 471.835 630.182ZM528.375 700V560.364H566.284V616.818H568.193L610.193 560.364H654.375L607.193 622.545L655.466 700H610.193L578.83 647.636L566.284 664V700H528.375ZM665.625 700V560.364H703.534V614.909H753.716V560.364H791.625V700H753.716V645.455H703.534V700H665.625ZM847.534 560.364V700H809.625V560.364H847.534ZM986.318 560.364V700H954.682L904.227 626.636H903.409V700H865.5V560.364H897.682L947.318 633.455H948.409V560.364H986.318Z" fill="#132500"/>
<path d="M421.523 944V897.455H453.295V906.591H432.773V916.136H451.273V925.295H432.773V944H421.523ZM479.295 928.932V909.091H490.386V944H479.795V937.5H479.432C478.659 939.636 477.341 941.333 475.477 942.591C473.629 943.833 471.394 944.455 468.773 944.455C466.394 944.455 464.303 943.909 462.5 942.818C460.697 941.727 459.295 940.205 458.295 938.25C457.295 936.28 456.788 933.977 456.773 931.341V909.091H467.886V929.159C467.902 931.053 468.402 932.545 469.386 933.636C470.371 934.727 471.712 935.273 473.409 935.273C474.515 935.273 475.508 935.03 476.386 934.545C477.28 934.045 477.985 933.326 478.5 932.386C479.03 931.432 479.295 930.28 479.295 928.932ZM508.574 897.455V944H497.46V897.455H508.574ZM526.761 897.455V944H515.648V897.455H526.761ZM556.176 920.886V929.455H534.631V920.886H556.176ZM594.5 919.75L584.295 920.023C584.189 919.295 583.902 918.652 583.432 918.091C582.962 917.515 582.348 917.068 581.591 916.75C580.848 916.417 579.985 916.25 579 916.25C577.712 916.25 576.614 916.508 575.705 917.023C574.811 917.538 574.371 918.235 574.386 919.114C574.371 919.795 574.644 920.386 575.205 920.886C575.78 921.386 576.803 921.788 578.273 922.091L585 923.364C588.485 924.03 591.076 925.136 592.773 926.682C594.485 928.227 595.348 930.273 595.364 932.818C595.348 935.212 594.636 937.295 593.227 939.068C591.833 940.841 589.924 942.22 587.5 943.205C585.076 944.174 582.303 944.659 579.182 944.659C574.197 944.659 570.265 943.636 567.386 941.591C564.523 939.53 562.886 936.773 562.477 933.318L573.455 933.045C573.697 934.318 574.326 935.288 575.341 935.955C576.356 936.621 577.652 936.955 579.227 936.955C580.652 936.955 581.811 936.689 582.705 936.159C583.598 935.629 584.053 934.924 584.068 934.045C584.053 933.258 583.705 932.629 583.023 932.159C582.341 931.674 581.273 931.295 579.818 931.023L573.727 929.864C570.227 929.227 567.621 928.053 565.909 926.341C564.197 924.614 563.348 922.417 563.364 919.75C563.348 917.417 563.97 915.424 565.227 913.773C566.485 912.106 568.273 910.833 570.591 909.955C572.909 909.076 575.644 908.636 578.795 908.636C583.523 908.636 587.25 909.629 589.977 911.614C592.705 913.583 594.212 916.295 594.5 919.75ZM620.54 909.091V917.273H598.517V909.091H620.54ZM603.131 900.727H614.244V933.023C614.244 933.705 614.35 934.258 614.562 934.682C614.79 935.091 615.116 935.386 615.54 935.568C615.964 935.735 616.472 935.818 617.062 935.818C617.487 935.818 617.934 935.78 618.403 935.705C618.888 935.614 619.252 935.538 619.494 935.477L621.176 943.5C620.646 943.652 619.896 943.841 618.926 944.068C617.972 944.295 616.828 944.439 615.494 944.5C612.888 944.621 610.653 944.318 608.79 943.591C606.941 942.848 605.525 941.697 604.54 940.136C603.57 938.576 603.1 936.614 603.131 934.25V900.727ZM636.051 944.591C633.824 944.591 631.847 944.22 630.119 943.477C628.407 942.72 627.051 941.583 626.051 940.068C625.066 938.538 624.574 936.621 624.574 934.318C624.574 932.379 624.915 930.742 625.597 929.409C626.278 928.076 627.218 926.992 628.415 926.159C629.612 925.326 630.991 924.697 632.551 924.273C634.112 923.833 635.778 923.538 637.551 923.386C639.536 923.205 641.134 923.015 642.347 922.818C643.559 922.606 644.438 922.311 644.983 921.932C645.544 921.538 645.824 920.985 645.824 920.273V920.159C645.824 918.992 645.422 918.091 644.619 917.455C643.816 916.818 642.733 916.5 641.369 916.5C639.9 916.5 638.718 916.818 637.824 917.455C636.93 918.091 636.362 918.97 636.119 920.091L625.869 919.727C626.172 917.606 626.953 915.712 628.21 914.045C629.483 912.364 631.225 911.045 633.438 910.091C635.665 909.121 638.339 908.636 641.46 908.636C643.688 908.636 645.741 908.902 647.619 909.432C649.498 909.947 651.134 910.705 652.528 911.705C653.922 912.689 654.998 913.902 655.756 915.341C656.528 916.78 656.915 918.424 656.915 920.273V944H646.46V939.136H646.188C645.566 940.318 644.771 941.318 643.801 942.136C642.847 942.955 641.718 943.568 640.415 943.977C639.127 944.386 637.672 944.591 636.051 944.591ZM639.483 937.318C640.68 937.318 641.756 937.076 642.71 936.591C643.68 936.106 644.453 935.439 645.028 934.591C645.604 933.727 645.892 932.727 645.892 931.591V928.273C645.574 928.439 645.188 928.591 644.733 928.727C644.294 928.864 643.809 928.992 643.278 929.114C642.748 929.235 642.203 929.341 641.642 929.432C641.081 929.523 640.544 929.606 640.028 929.682C638.983 929.848 638.089 930.106 637.347 930.455C636.619 930.803 636.059 931.258 635.665 931.818C635.286 932.364 635.097 933.015 635.097 933.773C635.097 934.924 635.506 935.803 636.324 936.409C637.157 937.015 638.21 937.318 639.483 937.318ZM680.006 944.659C676.324 944.659 673.165 943.902 670.528 942.386C667.907 940.871 665.892 938.765 664.483 936.068C663.074 933.356 662.369 930.22 662.369 926.659C662.369 923.083 663.074 919.947 664.483 917.25C665.907 914.538 667.93 912.424 670.551 910.909C673.188 909.394 676.331 908.636 679.983 908.636C683.21 908.636 686.021 909.22 688.415 910.386C690.824 911.553 692.703 913.205 694.051 915.341C695.415 917.462 696.134 919.955 696.21 922.818H685.824C685.612 921.03 685.006 919.629 684.006 918.614C683.021 917.598 681.733 917.091 680.142 917.091C678.854 917.091 677.725 917.455 676.756 918.182C675.786 918.894 675.028 919.955 674.483 921.364C673.953 922.758 673.688 924.485 673.688 926.545C673.688 928.606 673.953 930.348 674.483 931.773C675.028 933.182 675.786 934.25 676.756 934.977C677.725 935.689 678.854 936.045 680.142 936.045C681.172 936.045 682.081 935.826 682.869 935.386C683.672 934.947 684.331 934.303 684.847 933.455C685.362 932.591 685.688 931.545 685.824 930.318H696.21C696.104 933.197 695.384 935.712 694.051 937.864C692.733 940.015 690.877 941.689 688.483 942.886C686.104 944.068 683.278 944.659 680.006 944.659ZM711.92 934.841L711.966 921.591H713.511L723.33 909.091H735.92L721.33 927H718.398L711.92 934.841ZM701.898 944V897.455H713.011V944H701.898ZM723.58 944L714.443 929.5L721.761 921.614L736.42 944H723.58ZM770.852 944H753.648V897.455H770.83C775.572 897.455 779.655 898.386 783.08 900.25C786.519 902.098 789.17 904.765 791.034 908.25C792.898 911.72 793.83 915.871 793.83 920.705C793.83 925.553 792.898 929.72 791.034 933.205C789.186 936.689 786.542 939.364 783.102 941.227C779.663 943.076 775.58 944 770.852 944ZM764.898 934.409H770.42C773.027 934.409 775.231 933.97 777.034 933.091C778.852 932.197 780.223 930.75 781.148 928.75C782.087 926.735 782.557 924.053 782.557 920.705C782.557 917.356 782.087 914.689 781.148 912.705C780.208 910.705 778.822 909.265 776.989 908.386C775.17 907.492 772.928 907.045 770.261 907.045H764.898V934.409ZM816.716 944.659C813.064 944.659 809.913 943.939 807.261 942.5C804.625 941.045 802.595 938.977 801.17 936.295C799.761 933.598 799.057 930.394 799.057 926.682C799.057 923.076 799.769 919.924 801.193 917.227C802.617 914.515 804.625 912.409 807.216 910.909C809.807 909.394 812.86 908.636 816.375 908.636C818.86 908.636 821.133 909.023 823.193 909.795C825.254 910.568 827.034 911.712 828.534 913.227C830.034 914.742 831.201 916.614 832.034 918.841C832.867 921.053 833.284 923.591 833.284 926.455V929.227H802.943V922.773H822.943C822.928 921.591 822.648 920.538 822.102 919.614C821.557 918.689 820.807 917.97 819.852 917.455C818.913 916.924 817.83 916.659 816.602 916.659C815.36 916.659 814.246 916.939 813.261 917.5C812.277 918.045 811.496 918.795 810.92 919.75C810.345 920.689 810.042 921.758 810.011 922.955V929.523C810.011 930.947 810.292 932.197 810.852 933.273C811.413 934.333 812.208 935.159 813.239 935.75C814.269 936.341 815.496 936.636 816.92 936.636C817.905 936.636 818.799 936.5 819.602 936.227C820.405 935.955 821.095 935.553 821.67 935.023C822.246 934.492 822.678 933.841 822.966 933.068L833.17 933.364C832.746 935.652 831.814 937.644 830.375 939.341C828.951 941.023 827.08 942.333 824.761 943.273C822.443 944.197 819.761 944.659 816.716 944.659ZM871.886 909.091L859.909 944H847.182L835.227 909.091H846.932L853.364 933.136H853.727L860.182 909.091H871.886ZM891.341 944.659C887.689 944.659 884.538 943.939 881.886 942.5C879.25 941.045 877.22 938.977 875.795 936.295C874.386 933.598 873.682 930.394 873.682 926.682C873.682 923.076 874.394 919.924 875.818 917.227C877.242 914.515 879.25 912.409 881.841 910.909C884.432 909.394 887.485 908.636 891 908.636C893.485 908.636 895.758 909.023 897.818 909.795C899.879 910.568 901.659 911.712 903.159 913.227C904.659 914.742 905.826 916.614 906.659 918.841C907.492 921.053 907.909 923.591 907.909 926.455V929.227H877.568V922.773H897.568C897.553 921.591 897.273 920.538 896.727 919.614C896.182 918.689 895.432 917.97 894.477 917.455C893.538 916.924 892.455 916.659 891.227 916.659C889.985 916.659 888.871 916.939 887.886 917.5C886.902 918.045 886.121 918.795 885.545 919.75C884.97 920.689 884.667 921.758 884.636 922.955V929.523C884.636 930.947 884.917 932.197 885.477 933.273C886.038 934.333 886.833 935.159 887.864 935.75C888.894 936.341 890.121 936.636 891.545 936.636C892.53 936.636 893.424 936.5 894.227 936.227C895.03 935.955 895.72 935.553 896.295 935.023C896.871 934.492 897.303 933.841 897.591 933.068L907.795 933.364C907.371 935.652 906.439 937.644 905 939.341C903.576 941.023 901.705 942.333 899.386 943.273C897.068 944.197 894.386 944.659 891.341 944.659ZM924.699 897.455V944H913.585V897.455H924.699ZM948.068 944.659C944.402 944.659 941.25 943.909 938.614 942.409C935.992 940.894 933.97 938.788 932.545 936.091C931.136 933.379 930.432 930.235 930.432 926.659C930.432 923.068 931.136 919.924 932.545 917.227C933.97 914.515 935.992 912.409 938.614 910.909C941.25 909.394 944.402 908.636 948.068 908.636C951.735 908.636 954.879 909.394 957.5 910.909C960.136 912.409 962.159 914.515 963.568 917.227C964.992 919.924 965.705 923.068 965.705 926.659C965.705 930.235 964.992 933.379 963.568 936.091C962.159 938.788 960.136 940.894 957.5 942.409C954.879 943.909 951.735 944.659 948.068 944.659ZM948.136 936.273C949.47 936.273 950.598 935.864 951.523 935.045C952.447 934.227 953.152 933.091 953.636 931.636C954.136 930.182 954.386 928.5 954.386 926.591C954.386 924.652 954.136 922.955 953.636 921.5C953.152 920.045 952.447 918.909 951.523 918.091C950.598 917.273 949.47 916.864 948.136 916.864C946.758 916.864 945.591 917.273 944.636 918.091C943.697 918.909 942.977 920.045 942.477 921.5C941.992 922.955 941.75 924.652 941.75 926.591C941.75 928.5 941.992 930.182 942.477 931.636C942.977 933.091 943.697 934.227 944.636 935.045C945.591 935.864 946.758 936.273 948.136 936.273ZM971.398 957.091V909.091H982.398V915.068H982.739C983.193 914.008 983.837 912.985 984.67 912C985.519 911.015 986.595 910.212 987.898 909.591C989.216 908.955 990.792 908.636 992.625 908.636C995.049 908.636 997.314 909.273 999.42 910.545C1001.54 911.818 1003.25 913.78 1004.56 916.432C1005.86 919.083 1006.51 922.462 1006.51 926.568C1006.51 930.523 1005.88 933.833 1004.62 936.5C1003.38 939.167 1001.7 941.167 999.58 942.5C997.473 943.833 995.133 944.5 992.557 944.5C990.799 944.5 989.277 944.212 987.989 943.636C986.701 943.061 985.617 942.303 984.739 941.364C983.875 940.424 983.208 939.417 982.739 938.341H982.511V957.091H971.398ZM982.284 926.545C982.284 928.424 982.534 930.061 983.034 931.455C983.549 932.848 984.284 933.932 985.239 934.705C986.208 935.462 987.367 935.841 988.716 935.841C990.08 935.841 991.239 935.462 992.193 934.705C993.148 933.932 993.867 932.848 994.352 931.455C994.852 930.061 995.102 928.424 995.102 926.545C995.102 924.667 994.852 923.038 994.352 921.659C993.867 920.28 993.148 919.212 992.193 918.455C991.254 917.697 990.095 917.318 988.716 917.318C987.352 917.318 986.193 917.689 985.239 918.432C984.284 919.174 983.549 920.235 983.034 921.614C982.534 922.992 982.284 924.636 982.284 926.545ZM1028.65 944.659C1025 944.659 1021.85 943.939 1019.2 942.5C1016.56 941.045 1014.53 938.977 1013.11 936.295C1011.7 933.598 1010.99 930.394 1010.99 926.682C1010.99 923.076 1011.71 919.924 1013.13 917.227C1014.55 914.515 1016.56 912.409 1019.15 910.909C1021.74 909.394 1024.8 908.636 1028.31 908.636C1030.8 908.636 1033.07 909.023 1035.13 909.795C1037.19 910.568 1038.97 911.712 1040.47 913.227C1041.97 914.742 1043.14 916.614 1043.97 918.841C1044.8 921.053 1045.22 923.591 1045.22 926.455V929.227H1014.88V922.773H1034.88C1034.87 921.591 1034.59 920.538 1034.04 919.614C1033.49 918.689 1032.74 917.97 1031.79 917.455C1030.85 916.924 1029.77 916.659 1028.54 916.659C1027.3 916.659 1026.18 916.939 1025.2 917.5C1024.21 918.045 1023.43 918.795 1022.86 919.75C1022.28 920.689 1021.98 921.758 1021.95 922.955V929.523C1021.95 930.947 1022.23 932.197 1022.79 933.273C1023.35 934.333 1024.15 935.159 1025.18 935.75C1026.21 936.341 1027.43 936.636 1028.86 936.636C1029.84 936.636 1030.74 936.5 1031.54 936.227C1032.34 935.955 1033.03 935.553 1033.61 935.023C1034.18 934.492 1034.62 933.841 1034.9 933.068L1045.11 933.364C1044.68 935.652 1043.75 937.644 1042.31 939.341C1040.89 941.023 1039.02 942.333 1036.7 943.273C1034.38 944.197 1031.7 944.659 1028.65 944.659ZM1050.9 944V909.091H1061.69V915.455H1062.06C1062.69 913.152 1063.73 911.439 1065.17 910.318C1066.61 909.182 1068.28 908.614 1070.19 908.614C1070.71 908.614 1071.24 908.652 1071.78 908.727C1072.33 908.788 1072.84 908.886 1073.31 909.023V918.682C1072.78 918.5 1072.08 918.356 1071.22 918.25C1070.37 918.144 1069.61 918.091 1068.94 918.091C1067.63 918.091 1066.44 918.386 1065.38 918.977C1064.33 919.553 1063.5 920.364 1062.9 921.409C1062.31 922.439 1062.01 923.652 1062.01 925.045V944H1050.9Z" fill="#132103"/>
</g>
<defs>
<clipPath id="clip0_61_56">
<rect width="1512" height="982" fill="white"/>
</clipPath>
</defs>
</svg>
